<?xml version="1.0" standalone="no"?><!DOCTYPE svg PUBLIC "-//W3C//DTD SVG 1.1//EN" "http://www.w3.org/Graphics/SVG/1.1/DTD/svg11.dtd"><svg t="1771097354930" class="icon" viewBox="0 0 1024 1024" version="1.1" xmlns="http://www.w3.org/2000/svg" p-id="2685" xmlns:xlink="http://www.w3.org/1999/xlink" width="200" height="200"><path d="M512 1014.44266667c-277.43573333 0-502.44266667-225.00693333-502.44266667-502.44266667s225.00693333-502.44266667 502.44266667-502.44266667 502.44266667 225.00693333 502.44266667 502.44266667-225.00693333 502.44266667-502.44266667 502.44266667z m58.9824-345.15626667l87.38133333-152.91733333c-15.29173333-13.1072-34.95253333-19.6608-54.61333333-19.6608h-26.2144l-76.45866667 133.25653333c-17.47626667 30.58346667-48.05973333 50.24426667-85.1968 50.24426667-54.61333333 0-98.304-43.69066667-98.304-96.11946667v-2.18453333c0-26.2144 10.92266667-50.24426667 26.2144-67.72053334l-2.18453333-2.18453333c-13.1072-24.02986667-21.84533333-52.4288-24.02986667-80.82773333-50.24426667 30.58346667-83.01226667 87.38133333-83.01226666 148.54826666v2.18453334c0 98.304 78.6432 176.9472 176.9472 176.9472 72.0896 0 128.88746667-37.13706667 159.47093333-89.56586667z m-124.5184-8.73813333c19.6608-6.5536 34.95253333-19.6608 45.8752-39.3216l13.1072-21.84533334-78.6432-135.44106666c-8.73813333-13.1072-13.1072-30.58346667-13.1072-48.05973334 0-54.61333333 43.69066667-98.304 98.304-98.304h2.18453333c43.69066667 0 80.82773333 30.58346667 93.93493334 72.0896 30.58346667 0 58.9824 6.5536 83.01226666 19.6608-4.36906667-96.11946667-80.82773333-172.57813333-176.9472-172.57813333h-2.18453333c-98.304 0-176.9472 78.6432-176.9472 176.9472 0 32.768 8.73813333 63.35146667 24.02986667 87.38133333l87.38133333 159.47093334z m336.41813333-80.82773334c0-98.304-78.6432-176.9472-176.9472-176.9472h-179.13173333c0 4.36906667-2.18453333 8.73813333-2.18453333 15.29173334 0 15.29173333 4.36906667 30.58346667 10.92266666 41.50613333l13.1072 24.02986667h155.10186667c54.61333333 0 96.11946667 43.69066667 96.11946667 96.11946666v2.18453334c0 54.61333333-43.69066667 96.11946667-96.11946667 96.11946666-8.73813333 0-15.29173333 0-24.02986667-2.18453333-15.29173333 26.2144-34.95253333 48.05973333-58.9824 63.35146667 24.02986667 13.1072 52.4288 19.6608 83.01226667 19.6608 100.48853333 0 179.13173333-78.6432 179.13173333-179.13173334z" fill="#399BE8" p-id="2686"></path></svg>